<svg xmlns="http://www.w3.org/2000/svg" viewBox="0 0 768 768" fill="none">
  <path fill="#0066FF" d="M384 74.625c-47.5 0-93.25 13.75-132.25 39.75-39 26-69.5 63-88.25 107-18.75 43.875-24.5 92.375-16.625 140.125 7.875 47.875 28 92.375 58.125 128.5l268 324.375c4.375 5.25 10.875 8.25 17.625 8.25s13.25-3 17.625-8.25l268-324.375c30.125-36.125 50.25-80.625 58.125-128.5 7.875-47.75 2.125-96.25-16.625-140.125-18.75-44-49.25-81-88.25-107-39-26-84.75-39.75-132.25-39.75ZM384 170.625c29.875 0 58.625 8.625 83.25 24.875 24.625 16.25 43.875 39.5 55.625 67.25 11.75 27.625 15.375 58 10.5 87.75-4.875 29.875-17.5 57.75-36.5 80.625l-112.875 136.5-112.875-136.5c-19-22.875-31.625-50.75-36.5-80.625-4.875-29.75-1.25-60.125 10.5-87.75 11.75-27.75 31-51 55.625-67.25C325.375 179.25 354.125 170.625 384 170.625Z"/>
</svg>
